<svg width="28" height="32" viewBox="0 0 28 32" fill="none" xmlns="http://www.w3.org/2000/svg">
<path fill-rule="evenodd" clip-rule="evenodd" d="M10.4018 1.82623C8.48578 2.81817 6.91821 3.65754 6.91854 3.69168C6.9194 3.77979 11.517 6.09385 11.6802 6.08821C11.7545 6.08574 12.293 5.83939 12.8768 5.54083L13.9386 4.9981L15.0982 5.59046L16.2577 6.18293L18.1566 5.33492C21.0179 4.05712 21.3151 3.91709 21.2685 3.87005C21.2067 3.80763 20.1804 3.2597 17.396 1.80286C16.0503 1.09875 14.7443 0.408399 14.4935 0.268706C14.2428 0.129013 14.0035 0.0166394 13.9617 0.0188146C13.9199 0.0209898 12.3179 0.834335 10.4018 1.82623ZM1.99815 6.15107L0.0035984 7.17497V11.6687C0.0035984 14.1402 0.0297889 16.1623 0.0619148 16.1623C0.0939295 16.1623 1.07526 15.7396 2.24259 15.2229L4.36501 14.2834V9.54673L5.40217 10.1083C6.20139 10.5406 7.00109 10.9721 7.80127 11.4027L9.16317 12.1355L9.76919 11.8632C10.1493 11.6921 10.5286 11.5194 10.9071 11.345C11.1996 11.2096 11.9177 10.8882 12.5027 10.6306C13.0878 10.3729 13.6293 10.1137 13.7061 10.0547C13.8082 9.9762 12.5642 9.29304 9.10519 7.52772C6.49783 6.19705 4.28088 5.11254 4.17864 5.11773C4.0764 5.12293 3.09518 5.58788 1.99815 6.15107ZM21.6279 6.43861C20.2695 7.04807 19.1571 7.57108 19.1559 7.60091C19.1547 7.6307 19.8951 8.06821 20.8013 8.573C21.7074 9.07791 22.4488 9.51801 22.4488 9.55115C22.4488 9.58422 21.647 9.97034 20.667 10.4094C19.687 10.8483 17.2098 11.9601 15.1621 12.88L8.30089 15.9623C6.57495 16.7377 5.01922 17.4366 4.84371 17.5156C1.31839 19.1016 0.349416 19.5417 0.216349 19.6173C0.0825407 19.6933 0.0522325 20.1352 0.0284163 22.3529L0 24.998L1.78362 25.9012L3.56721 26.8043L6.04042 25.695C7.40073 25.085 8.51364 24.5538 8.51364 24.5147C8.51364 24.4757 8.26227 24.313 7.95518 24.1529C7.64795 23.9928 7.01374 23.6384 6.54568 23.3652C6.07767 23.092 5.61099 22.8413 5.50853 22.8081C5.4061 22.7749 5.32378 22.7169 5.32545 22.6791C5.32716 22.6414 6.41625 22.1273 7.74551 21.5365C10.3273 20.3893 12.3032 19.5051 16.545 17.5987C18.4418 16.7464 20.3388 15.8946 22.2361 15.0434C23.9035 14.2954 25.8422 13.4218 26.5443 13.1021L27.8208 12.5208L27.8492 9.84561L27.8777 7.17055L26.0687 6.24774C25.0736 5.74025 24.2232 5.32626 24.1786 5.32777C24.134 5.32917 22.9862 5.82899 21.6279 6.43861ZM27.3361 16.0896C27.0695 16.219 26.543 16.4613 26.166 16.628C25.789 16.7947 25.0736 17.1155 24.5763 17.341L23.6721 17.7509L23.6515 20.0994C23.6401 21.3911 23.5923 22.4422 23.5451 22.4354C23.4381 22.4196 21.7435 21.5558 20.04 20.6486C18.8105 19.994 18.7332 19.9679 18.4443 20.1101C18.2773 20.1924 17.279 20.6374 16.2259 21.0991C15.1727 21.5608 14.2768 21.9687 14.2346 22.0057C14.1926 22.0425 16.3121 23.1842 18.9448 24.5429L23.7314 27.0132L25.7762 25.9619C26.9006 25.3839 27.8568 24.8565 27.9009 24.7902C28 24.6411 27.9915 15.8339 27.8923 15.8458C27.853 15.8505 27.6027 15.9602 27.3361 16.0896ZM16.0131 26.4271C15.6584 26.5786 15.3039 26.7304 14.9494 26.8824C13.8789 27.3426 14.0887 27.3579 12.8151 26.7278C11.9669 26.3082 11.6013 26.1787 11.4426 26.2416C11.3235 26.2887 10.299 26.7468 9.16573 27.2595C8.03249 27.7722 7.06597 28.1917 7.01789 28.1917C6.54242 28.1917 7.33288 28.6611 10.3831 30.1902L13.9603 31.9833L15.4654 31.2449C16.2932 30.8387 17.9629 30.0254 19.1759 29.4375C20.3887 28.8494 21.3661 28.3531 21.3479 28.3343C21.3294 28.3157 20.3131 27.797 19.0893 27.1818L16.8641 26.0633L16.0131 26.4271Z" fill="white"/>
</svg>
