<svg width="40" height="40" viewBox="0 0 40 40" fill="none" xmlns="http://www.w3.org/2000/svg">
<g clip-path="url(#clip0_4_2)">
<path fill-rule="evenodd" clip-rule="evenodd" d="M32.9617 7.38333C33.3735 7.20998 33.8243 7.1502 34.2671 7.21019C34.71 7.27019 35.1286 7.44778 35.4795 7.72447C35.8304 8.00117 36.1007 8.36686 36.2623 8.78347C36.4239 9.20009 36.4709 9.6524 36.3983 10.0933L32.6183 33.0217C32.2517 35.2333 29.825 36.5017 27.7967 35.4C26.1 34.4783 23.58 33.0583 21.3133 31.5767C20.18 30.835 16.7083 28.46 17.135 26.77C17.5017 25.325 23.335 19.895 26.6683 16.6667C27.9767 15.3983 27.38 14.6667 25.835 15.8333C21.9967 18.73 15.8383 23.135 13.8017 24.375C12.005 25.4683 11.0683 25.655 9.94833 25.4683C7.905 25.1283 6.01 24.6017 4.46333 23.96C2.37333 23.0933 2.475 20.22 4.46167 19.3833L32.9617 7.38333Z" fill="white"/>
</g>
<defs>
<clipPath id="clip0_4_2">
<rect width="40" height="40" fill="white"/>
</clipPath>
</defs>
</svg>
